<mxfile host="app.diagrams.net" modified="2021-02-09T21:20:26.639Z" agent="5.0 (Windows NT 10.0; Win64; x64) AppleWebKit/537.36 (KHTML, like Gecko) Chrome/88.0.4324.146 Safari/537.36" etag="hxpsvjNw6033Lewui84S" version="14.3.0" type="github">
  <diagram id="R2lEEEUBdFMjLlhIrx00" name="Page-1">
    <mxGraphModel dx="1021" dy="529" grid="1" gridSize="10" guides="1" tooltips="1" connect="1" arrows="1" fold="1" page="1" pageScale="1" pageWidth="850" pageHeight="1100" math="0" shadow="0" extFonts="Permanent Marker^https://fonts.googleapis.com/css?family=Permanent+Marker">
      <root>
        <mxCell id="0" />
        <mxCell id="1" parent="0" />
        <mxCell id="Y6hz9hV52p69HIEqWhYi-14" value="CATEORY" style="shape=table;startSize=30;container=1;collapsible=1;childLayout=tableLayout;fixedRows=1;rowLines=0;fontStyle=1;align=center;resizeLast=1;" vertex="1" parent="1">
          <mxGeometry x="60" y="1010" width="180" height="190" as="geometry" />
        </mxCell>
        <mxCell id="Y6hz9hV52p69HIEqWhYi-15" value="" style="shape=partialRectangle;collapsible=0;dropTarget=0;pointerEvents=0;fillColor=none;top=0;left=0;bottom=1;right=0;points=[[0,0.5],[1,0.5]];portConstraint=eastwest;" vertex="1" parent="Y6hz9hV52p69HIEqWhYi-14">
          <mxGeometry y="30" width="180" height="20" as="geometry" />
        </mxCell>
        <mxCell id="Y6hz9hV52p69HIEqWhYi-16" value="PK" style="shape=partialRectangle;connectable=0;fillColor=none;top=0;left=0;bottom=0;right=0;fontStyle=1;overflow=hidden;" vertex="1" parent="Y6hz9hV52p69HIEqWhYi-15">
          <mxGeometry width="30" height="20" as="geometry" />
        </mxCell>
        <mxCell id="Y6hz9hV52p69HIEqWhYi-17" value="cat_id" style="shape=partialRectangle;connectable=0;fillColor=none;top=0;left=0;bottom=0;right=0;align=left;spacingLeft=6;fontStyle=5;overflow=hidden;" vertex="1" parent="Y6hz9hV52p69HIEqWhYi-15">
          <mxGeometry x="30" width="150" height="20" as="geometry" />
        </mxCell>
        <mxCell id="Y6hz9hV52p69HIEqWhYi-18" value="" style="shape=partialRectangle;collapsible=0;dropTarget=0;pointerEvents=0;fillColor=none;top=0;left=0;bottom=0;right=0;points=[[0,0.5],[1,0.5]];portConstraint=eastwest;" vertex="1" parent="Y6hz9hV52p69HIEqWhYi-14">
          <mxGeometry y="50" width="180" height="20" as="geometry" />
        </mxCell>
        <mxCell id="Y6hz9hV52p69HIEqWhYi-19" value="" style="shape=partialRectangle;connectable=0;fillColor=none;top=0;left=0;bottom=0;right=0;editable=1;overflow=hidden;" vertex="1" parent="Y6hz9hV52p69HIEqWhYi-18">
          <mxGeometry width="30" height="20" as="geometry" />
        </mxCell>
        <mxCell id="Y6hz9hV52p69HIEqWhYi-20" value="cat_name" style="shape=partialRectangle;connectable=0;fillColor=none;top=0;left=0;bottom=0;right=0;align=left;spacingLeft=6;overflow=hidden;" vertex="1" parent="Y6hz9hV52p69HIEqWhYi-18">
          <mxGeometry x="30" width="150" height="20" as="geometry" />
        </mxCell>
        <mxCell id="Y6hz9hV52p69HIEqWhYi-21" value="" style="shape=partialRectangle;collapsible=0;dropTarget=0;pointerEvents=0;fillColor=none;top=0;left=0;bottom=0;right=0;points=[[0,0.5],[1,0.5]];portConstraint=eastwest;" vertex="1" parent="Y6hz9hV52p69HIEqWhYi-14">
          <mxGeometry y="70" width="180" height="20" as="geometry" />
        </mxCell>
        <mxCell id="Y6hz9hV52p69HIEqWhYi-22" value="" style="shape=partialRectangle;connectable=0;fillColor=none;top=0;left=0;bottom=0;right=0;editable=1;overflow=hidden;" vertex="1" parent="Y6hz9hV52p69HIEqWhYi-21">
          <mxGeometry width="30" height="20" as="geometry" />
        </mxCell>
        <mxCell id="Y6hz9hV52p69HIEqWhYi-23" value="description" style="shape=partialRectangle;connectable=0;fillColor=none;top=0;left=0;bottom=0;right=0;align=left;spacingLeft=6;overflow=hidden;" vertex="1" parent="Y6hz9hV52p69HIEqWhYi-21">
          <mxGeometry x="30" width="150" height="20" as="geometry" />
        </mxCell>
        <mxCell id="Y6hz9hV52p69HIEqWhYi-24" value="" style="shape=partialRectangle;collapsible=0;dropTarget=0;pointerEvents=0;fillColor=none;top=0;left=0;bottom=0;right=0;points=[[0,0.5],[1,0.5]];portConstraint=eastwest;" vertex="1" parent="Y6hz9hV52p69HIEqWhYi-14">
          <mxGeometry y="90" width="180" height="30" as="geometry" />
        </mxCell>
        <mxCell id="Y6hz9hV52p69HIEqWhYi-25" value="" style="shape=partialRectangle;connectable=0;fillColor=none;top=0;left=0;bottom=0;right=0;editable=1;overflow=hidden;" vertex="1" parent="Y6hz9hV52p69HIEqWhYi-24">
          <mxGeometry width="30" height="30" as="geometry" />
        </mxCell>
        <mxCell id="Y6hz9hV52p69HIEqWhYi-26" value="is_active" style="shape=partialRectangle;connectable=0;fillColor=none;top=0;left=0;bottom=0;right=0;align=left;spacingLeft=6;overflow=hidden;" vertex="1" parent="Y6hz9hV52p69HIEqWhYi-24">
          <mxGeometry x="30" width="150" height="30" as="geometry" />
        </mxCell>
        <mxCell id="Y6hz9hV52p69HIEqWhYi-268" value="" style="shape=partialRectangle;collapsible=0;dropTarget=0;pointerEvents=0;fillColor=none;top=0;left=0;bottom=0;right=0;points=[[0,0.5],[1,0.5]];portConstraint=eastwest;" vertex="1" parent="Y6hz9hV52p69HIEqWhYi-14">
          <mxGeometry y="120" width="180" height="30" as="geometry" />
        </mxCell>
        <mxCell id="Y6hz9hV52p69HIEqWhYi-269" value="" style="shape=partialRectangle;connectable=0;fillColor=none;top=0;left=0;bottom=0;right=0;editable=1;overflow=hidden;" vertex="1" parent="Y6hz9hV52p69HIEqWhYi-268">
          <mxGeometry width="30" height="30" as="geometry" />
        </mxCell>
        <mxCell id="Y6hz9hV52p69HIEqWhYi-270" value="creation_date" style="shape=partialRectangle;connectable=0;fillColor=none;top=0;left=0;bottom=0;right=0;align=left;spacingLeft=6;overflow=hidden;" vertex="1" parent="Y6hz9hV52p69HIEqWhYi-268">
          <mxGeometry x="30" width="150" height="30" as="geometry" />
        </mxCell>
        <mxCell id="Y6hz9hV52p69HIEqWhYi-276" value="" style="shape=partialRectangle;collapsible=0;dropTarget=0;pointerEvents=0;fillColor=none;top=0;left=0;bottom=0;right=0;points=[[0,0.5],[1,0.5]];portConstraint=eastwest;" vertex="1" parent="Y6hz9hV52p69HIEqWhYi-14">
          <mxGeometry y="150" width="180" height="30" as="geometry" />
        </mxCell>
        <mxCell id="Y6hz9hV52p69HIEqWhYi-277" value="" style="shape=partialRectangle;connectable=0;fillColor=none;top=0;left=0;bottom=0;right=0;editable=1;overflow=hidden;" vertex="1" parent="Y6hz9hV52p69HIEqWhYi-276">
          <mxGeometry width="30" height="30" as="geometry" />
        </mxCell>
        <mxCell id="Y6hz9hV52p69HIEqWhYi-278" value="updation_date" style="shape=partialRectangle;connectable=0;fillColor=none;top=0;left=0;bottom=0;right=0;align=left;spacingLeft=6;overflow=hidden;" vertex="1" parent="Y6hz9hV52p69HIEqWhYi-276">
          <mxGeometry x="30" width="150" height="30" as="geometry" />
        </mxCell>
        <mxCell id="Y6hz9hV52p69HIEqWhYi-31" value="CART" style="shape=table;startSize=30;container=1;collapsible=1;childLayout=tableLayout;fixedRows=1;rowLines=0;fontStyle=1;align=center;resizeLast=1;" vertex="1" parent="1">
          <mxGeometry x="310" width="180" height="220" as="geometry" />
        </mxCell>
        <mxCell id="Y6hz9hV52p69HIEqWhYi-32" value="" style="shape=partialRectangle;collapsible=0;dropTarget=0;pointerEvents=0;fillColor=none;top=0;left=0;bottom=1;right=0;points=[[0,0.5],[1,0.5]];portConstraint=eastwest;" vertex="1" parent="Y6hz9hV52p69HIEqWhYi-31">
          <mxGeometry y="30" width="180" height="30" as="geometry" />
        </mxCell>
        <mxCell id="Y6hz9hV52p69HIEqWhYi-33" value="PK" style="shape=partialRectangle;connectable=0;fillColor=none;top=0;left=0;bottom=0;right=0;fontStyle=1;overflow=hidden;" vertex="1" parent="Y6hz9hV52p69HIEqWhYi-32">
          <mxGeometry width="30" height="30" as="geometry" />
        </mxCell>
        <mxCell id="Y6hz9hV52p69HIEqWhYi-34" value="cart_id" style="shape=partialRectangle;connectable=0;fillColor=none;top=0;left=0;bottom=0;right=0;align=left;spacingLeft=6;fontStyle=5;overflow=hidden;" vertex="1" parent="Y6hz9hV52p69HIEqWhYi-32">
          <mxGeometry x="30" width="150" height="30" as="geometry" />
        </mxCell>
        <mxCell id="Y6hz9hV52p69HIEqWhYi-49" value="" style="shape=partialRectangle;collapsible=0;dropTarget=0;pointerEvents=0;fillColor=none;top=0;left=0;bottom=0;right=0;points=[[0,0.5],[1,0.5]];portConstraint=eastwest;" vertex="1" parent="Y6hz9hV52p69HIEqWhYi-31">
          <mxGeometry y="60" width="180" height="30" as="geometry" />
        </mxCell>
        <mxCell id="Y6hz9hV52p69HIEqWhYi-50" value="FK" style="shape=partialRectangle;connectable=0;fillColor=none;top=0;left=0;bottom=0;right=0;fontStyle=0;overflow=hidden;" vertex="1" parent="Y6hz9hV52p69HIEqWhYi-49">
          <mxGeometry width="30" height="30" as="geometry" />
        </mxCell>
        <mxCell id="Y6hz9hV52p69HIEqWhYi-51" value="user_id" style="shape=partialRectangle;connectable=0;fillColor=none;top=0;left=0;bottom=0;right=0;align=left;spacingLeft=6;fontStyle=0;overflow=hidden;" vertex="1" parent="Y6hz9hV52p69HIEqWhYi-49">
          <mxGeometry x="30" width="150" height="30" as="geometry" />
        </mxCell>
        <mxCell id="Y6hz9hV52p69HIEqWhYi-45" value="" style="shape=partialRectangle;collapsible=0;dropTarget=0;pointerEvents=0;fillColor=none;top=0;left=0;bottom=0;right=0;points=[[0,0.5],[1,0.5]];portConstraint=eastwest;" vertex="1" parent="Y6hz9hV52p69HIEqWhYi-31">
          <mxGeometry y="90" width="180" height="30" as="geometry" />
        </mxCell>
        <mxCell id="Y6hz9hV52p69HIEqWhYi-46" value="FK" style="shape=partialRectangle;connectable=0;fillColor=none;top=0;left=0;bottom=0;right=0;fontStyle=0;overflow=hidden;" vertex="1" parent="Y6hz9hV52p69HIEqWhYi-45">
          <mxGeometry width="30" height="30" as="geometry" />
        </mxCell>
        <mxCell id="Y6hz9hV52p69HIEqWhYi-47" value="prod_id" style="shape=partialRectangle;connectable=0;fillColor=none;top=0;left=0;bottom=0;right=0;align=left;spacingLeft=6;fontStyle=0;overflow=hidden;" vertex="1" parent="Y6hz9hV52p69HIEqWhYi-45">
          <mxGeometry x="30" width="150" height="30" as="geometry" />
        </mxCell>
        <mxCell id="Y6hz9hV52p69HIEqWhYi-35" value="" style="shape=partialRectangle;collapsible=0;dropTarget=0;pointerEvents=0;fillColor=none;top=0;left=0;bottom=0;right=0;points=[[0,0.5],[1,0.5]];portConstraint=eastwest;" vertex="1" parent="Y6hz9hV52p69HIEqWhYi-31">
          <mxGeometry y="120" width="180" height="30" as="geometry" />
        </mxCell>
        <mxCell id="Y6hz9hV52p69HIEqWhYi-36" value="" style="shape=partialRectangle;connectable=0;fillColor=none;top=0;left=0;bottom=0;right=0;editable=1;overflow=hidden;" vertex="1" parent="Y6hz9hV52p69HIEqWhYi-35">
          <mxGeometry width="30" height="30" as="geometry" />
        </mxCell>
        <mxCell id="Y6hz9hV52p69HIEqWhYi-37" value="quantity" style="shape=partialRectangle;connectable=0;fillColor=none;top=0;left=0;bottom=0;right=0;align=left;spacingLeft=6;overflow=hidden;" vertex="1" parent="Y6hz9hV52p69HIEqWhYi-35">
          <mxGeometry x="30" width="150" height="30" as="geometry" />
        </mxCell>
        <mxCell id="Y6hz9hV52p69HIEqWhYi-38" value="" style="shape=partialRectangle;collapsible=0;dropTarget=0;pointerEvents=0;fillColor=none;top=0;left=0;bottom=0;right=0;points=[[0,0.5],[1,0.5]];portConstraint=eastwest;" vertex="1" parent="Y6hz9hV52p69HIEqWhYi-31">
          <mxGeometry y="150" width="180" height="30" as="geometry" />
        </mxCell>
        <mxCell id="Y6hz9hV52p69HIEqWhYi-39" value="" style="shape=partialRectangle;connectable=0;fillColor=none;top=0;left=0;bottom=0;right=0;editable=1;overflow=hidden;" vertex="1" parent="Y6hz9hV52p69HIEqWhYi-38">
          <mxGeometry width="30" height="30" as="geometry" />
        </mxCell>
        <mxCell id="Y6hz9hV52p69HIEqWhYi-40" value="creation_date" style="shape=partialRectangle;connectable=0;fillColor=none;top=0;left=0;bottom=0;right=0;align=left;spacingLeft=6;overflow=hidden;" vertex="1" parent="Y6hz9hV52p69HIEqWhYi-38">
          <mxGeometry x="30" width="150" height="30" as="geometry" />
        </mxCell>
        <mxCell id="Y6hz9hV52p69HIEqWhYi-41" value="" style="shape=partialRectangle;collapsible=0;dropTarget=0;pointerEvents=0;fillColor=none;top=0;left=0;bottom=0;right=0;points=[[0,0.5],[1,0.5]];portConstraint=eastwest;" vertex="1" parent="Y6hz9hV52p69HIEqWhYi-31">
          <mxGeometry y="180" width="180" height="30" as="geometry" />
        </mxCell>
        <mxCell id="Y6hz9hV52p69HIEqWhYi-42" value="" style="shape=partialRectangle;connectable=0;fillColor=none;top=0;left=0;bottom=0;right=0;editable=1;overflow=hidden;" vertex="1" parent="Y6hz9hV52p69HIEqWhYi-41">
          <mxGeometry width="30" height="30" as="geometry" />
        </mxCell>
        <mxCell id="Y6hz9hV52p69HIEqWhYi-43" value="updation_date" style="shape=partialRectangle;connectable=0;fillColor=none;top=0;left=0;bottom=0;right=0;align=left;spacingLeft=6;overflow=hidden;" vertex="1" parent="Y6hz9hV52p69HIEqWhYi-41">
          <mxGeometry x="30" width="150" height="30" as="geometry" />
        </mxCell>
        <mxCell id="Y6hz9hV52p69HIEqWhYi-52" value="SUB CATEGORY" style="shape=table;startSize=30;container=1;collapsible=1;childLayout=tableLayout;fixedRows=1;rowLines=0;fontStyle=1;align=center;resizeLast=1;" vertex="1" parent="1">
          <mxGeometry x="60" y="670" width="180" height="240.00000000000045" as="geometry" />
        </mxCell>
        <mxCell id="Y6hz9hV52p69HIEqWhYi-53" value="" style="shape=partialRectangle;collapsible=0;dropTarget=0;pointerEvents=0;fillColor=none;top=0;left=0;bottom=1;right=0;points=[[0,0.5],[1,0.5]];portConstraint=eastwest;" vertex="1" parent="Y6hz9hV52p69HIEqWhYi-52">
          <mxGeometry y="30" width="180" height="30" as="geometry" />
        </mxCell>
        <mxCell id="Y6hz9hV52p69HIEqWhYi-54" value="PK" style="shape=partialRectangle;connectable=0;fillColor=none;top=0;left=0;bottom=0;right=0;fontStyle=1;overflow=hidden;" vertex="1" parent="Y6hz9hV52p69HIEqWhYi-53">
          <mxGeometry width="30" height="30" as="geometry" />
        </mxCell>
        <mxCell id="Y6hz9hV52p69HIEqWhYi-55" value="sub_cat_id" style="shape=partialRectangle;connectable=0;fillColor=none;top=0;left=0;bottom=0;right=0;align=left;spacingLeft=6;fontStyle=5;overflow=hidden;" vertex="1" parent="Y6hz9hV52p69HIEqWhYi-53">
          <mxGeometry x="30" width="150" height="30" as="geometry" />
        </mxCell>
        <mxCell id="Y6hz9hV52p69HIEqWhYi-56" value="" style="shape=partialRectangle;collapsible=0;dropTarget=0;pointerEvents=0;fillColor=none;top=0;left=0;bottom=0;right=0;points=[[0,0.5],[1,0.5]];portConstraint=eastwest;" vertex="1" parent="Y6hz9hV52p69HIEqWhYi-52">
          <mxGeometry y="60" width="180" height="30" as="geometry" />
        </mxCell>
        <mxCell id="Y6hz9hV52p69HIEqWhYi-57" value="FK" style="shape=partialRectangle;connectable=0;fillColor=none;top=0;left=0;bottom=0;right=0;editable=1;overflow=hidden;" vertex="1" parent="Y6hz9hV52p69HIEqWhYi-56">
          <mxGeometry width="30" height="30" as="geometry" />
        </mxCell>
        <mxCell id="Y6hz9hV52p69HIEqWhYi-58" value="cat_id" style="shape=partialRectangle;connectable=0;fillColor=none;top=0;left=0;bottom=0;right=0;align=left;spacingLeft=6;overflow=hidden;" vertex="1" parent="Y6hz9hV52p69HIEqWhYi-56">
          <mxGeometry x="30" width="150" height="30" as="geometry" />
        </mxCell>
        <mxCell id="Y6hz9hV52p69HIEqWhYi-59" value="" style="shape=partialRectangle;collapsible=0;dropTarget=0;pointerEvents=0;fillColor=none;top=0;left=0;bottom=0;right=0;points=[[0,0.5],[1,0.5]];portConstraint=eastwest;" vertex="1" parent="Y6hz9hV52p69HIEqWhYi-52">
          <mxGeometry y="90" width="180" height="30" as="geometry" />
        </mxCell>
        <mxCell id="Y6hz9hV52p69HIEqWhYi-60" value="" style="shape=partialRectangle;connectable=0;fillColor=none;top=0;left=0;bottom=0;right=0;editable=1;overflow=hidden;" vertex="1" parent="Y6hz9hV52p69HIEqWhYi-59">
          <mxGeometry width="30" height="30" as="geometry" />
        </mxCell>
        <mxCell id="Y6hz9hV52p69HIEqWhYi-61" value="subcat_name" style="shape=partialRectangle;connectable=0;fillColor=none;top=0;left=0;bottom=0;right=0;align=left;spacingLeft=6;overflow=hidden;" vertex="1" parent="Y6hz9hV52p69HIEqWhYi-59">
          <mxGeometry x="30" width="150" height="30" as="geometry" />
        </mxCell>
        <mxCell id="Y6hz9hV52p69HIEqWhYi-62" value="" style="shape=partialRectangle;collapsible=0;dropTarget=0;pointerEvents=0;fillColor=none;top=0;left=0;bottom=0;right=0;points=[[0,0.5],[1,0.5]];portConstraint=eastwest;" vertex="1" parent="Y6hz9hV52p69HIEqWhYi-52">
          <mxGeometry y="120" width="180" height="20" as="geometry" />
        </mxCell>
        <mxCell id="Y6hz9hV52p69HIEqWhYi-63" value="" style="shape=partialRectangle;connectable=0;fillColor=none;top=0;left=0;bottom=0;right=0;editable=1;overflow=hidden;" vertex="1" parent="Y6hz9hV52p69HIEqWhYi-62">
          <mxGeometry width="30" height="20" as="geometry" />
        </mxCell>
        <mxCell id="Y6hz9hV52p69HIEqWhYi-64" value="desciption" style="shape=partialRectangle;connectable=0;fillColor=none;top=0;left=0;bottom=0;right=0;align=left;spacingLeft=6;overflow=hidden;" vertex="1" parent="Y6hz9hV52p69HIEqWhYi-62">
          <mxGeometry x="30" width="150" height="20" as="geometry" />
        </mxCell>
        <mxCell id="Y6hz9hV52p69HIEqWhYi-272" value="" style="shape=partialRectangle;collapsible=0;dropTarget=0;pointerEvents=0;fillColor=none;top=0;left=0;bottom=0;right=0;points=[[0,0.5],[1,0.5]];portConstraint=eastwest;" vertex="1" parent="Y6hz9hV52p69HIEqWhYi-52">
          <mxGeometry y="140" width="180" height="30" as="geometry" />
        </mxCell>
        <mxCell id="Y6hz9hV52p69HIEqWhYi-273" value="" style="shape=partialRectangle;connectable=0;fillColor=none;top=0;left=0;bottom=0;right=0;editable=1;overflow=hidden;" vertex="1" parent="Y6hz9hV52p69HIEqWhYi-272">
          <mxGeometry width="30" height="30" as="geometry" />
        </mxCell>
        <mxCell id="Y6hz9hV52p69HIEqWhYi-274" value="is_active" style="shape=partialRectangle;connectable=0;fillColor=none;top=0;left=0;bottom=0;right=0;align=left;spacingLeft=6;overflow=hidden;" vertex="1" parent="Y6hz9hV52p69HIEqWhYi-272">
          <mxGeometry x="30" width="150" height="30" as="geometry" />
        </mxCell>
        <mxCell id="Y6hz9hV52p69HIEqWhYi-264" value="" style="shape=partialRectangle;collapsible=0;dropTarget=0;pointerEvents=0;fillColor=none;top=0;left=0;bottom=0;right=0;points=[[0,0.5],[1,0.5]];portConstraint=eastwest;" vertex="1" parent="Y6hz9hV52p69HIEqWhYi-52">
          <mxGeometry y="170" width="180" height="30" as="geometry" />
        </mxCell>
        <mxCell id="Y6hz9hV52p69HIEqWhYi-265" value="" style="shape=partialRectangle;connectable=0;fillColor=none;top=0;left=0;bottom=0;right=0;editable=1;overflow=hidden;" vertex="1" parent="Y6hz9hV52p69HIEqWhYi-264">
          <mxGeometry width="30" height="30" as="geometry" />
        </mxCell>
        <mxCell id="Y6hz9hV52p69HIEqWhYi-266" value="creation_date" style="shape=partialRectangle;connectable=0;fillColor=none;top=0;left=0;bottom=0;right=0;align=left;spacingLeft=6;overflow=hidden;" vertex="1" parent="Y6hz9hV52p69HIEqWhYi-264">
          <mxGeometry x="30" width="150" height="30" as="geometry" />
        </mxCell>
        <mxCell id="Y6hz9hV52p69HIEqWhYi-260" value="" style="shape=partialRectangle;collapsible=0;dropTarget=0;pointerEvents=0;fillColor=none;top=0;left=0;bottom=0;right=0;points=[[0,0.5],[1,0.5]];portConstraint=eastwest;" vertex="1" parent="Y6hz9hV52p69HIEqWhYi-52">
          <mxGeometry y="200" width="180" height="30" as="geometry" />
        </mxCell>
        <mxCell id="Y6hz9hV52p69HIEqWhYi-261" value="" style="shape=partialRectangle;connectable=0;fillColor=none;top=0;left=0;bottom=0;right=0;editable=1;overflow=hidden;" vertex="1" parent="Y6hz9hV52p69HIEqWhYi-260">
          <mxGeometry width="30" height="30" as="geometry" />
        </mxCell>
        <mxCell id="Y6hz9hV52p69HIEqWhYi-262" value="updation_date" style="shape=partialRectangle;connectable=0;fillColor=none;top=0;left=0;bottom=0;right=0;align=left;spacingLeft=6;overflow=hidden;" vertex="1" parent="Y6hz9hV52p69HIEqWhYi-260">
          <mxGeometry x="30" width="150" height="30" as="geometry" />
        </mxCell>
        <mxCell id="Y6hz9hV52p69HIEqWhYi-65" value="PRODUCT" style="shape=table;startSize=30;container=1;collapsible=1;childLayout=tableLayout;fixedRows=1;rowLines=0;fontStyle=1;align=center;resizeLast=1;" vertex="1" parent="1">
          <mxGeometry x="70" y="350" width="180" height="250" as="geometry" />
        </mxCell>
        <mxCell id="Y6hz9hV52p69HIEqWhYi-66" value="" style="shape=partialRectangle;collapsible=0;dropTarget=0;pointerEvents=0;fillColor=none;top=0;left=0;bottom=1;right=0;points=[[0,0.5],[1,0.5]];portConstraint=eastwest;" vertex="1" parent="Y6hz9hV52p69HIEqWhYi-65">
          <mxGeometry y="30" width="180" height="30" as="geometry" />
        </mxCell>
        <mxCell id="Y6hz9hV52p69HIEqWhYi-67" value="PK" style="shape=partialRectangle;connectable=0;fillColor=none;top=0;left=0;bottom=0;right=0;fontStyle=1;overflow=hidden;" vertex="1" parent="Y6hz9hV52p69HIEqWhYi-66">
          <mxGeometry width="30" height="30" as="geometry" />
        </mxCell>
        <mxCell id="Y6hz9hV52p69HIEqWhYi-68" value="prod_id" style="shape=partialRectangle;connectable=0;fillColor=none;top=0;left=0;bottom=0;right=0;align=left;spacingLeft=6;fontStyle=5;overflow=hidden;" vertex="1" parent="Y6hz9hV52p69HIEqWhYi-66">
          <mxGeometry x="30" width="150" height="30" as="geometry" />
        </mxCell>
        <mxCell id="Y6hz9hV52p69HIEqWhYi-69" value="" style="shape=partialRectangle;collapsible=0;dropTarget=0;pointerEvents=0;fillColor=none;top=0;left=0;bottom=0;right=0;points=[[0,0.5],[1,0.5]];portConstraint=eastwest;" vertex="1" parent="Y6hz9hV52p69HIEqWhYi-65">
          <mxGeometry y="60" width="180" height="30" as="geometry" />
        </mxCell>
        <mxCell id="Y6hz9hV52p69HIEqWhYi-70" value="" style="shape=partialRectangle;connectable=0;fillColor=none;top=0;left=0;bottom=0;right=0;editable=1;overflow=hidden;" vertex="1" parent="Y6hz9hV52p69HIEqWhYi-69">
          <mxGeometry width="30" height="30" as="geometry" />
        </mxCell>
        <mxCell id="Y6hz9hV52p69HIEqWhYi-71" value="prod_name" style="shape=partialRectangle;connectable=0;fillColor=none;top=0;left=0;bottom=0;right=0;align=left;spacingLeft=6;overflow=hidden;" vertex="1" parent="Y6hz9hV52p69HIEqWhYi-69">
          <mxGeometry x="30" width="150" height="30" as="geometry" />
        </mxCell>
        <mxCell id="Y6hz9hV52p69HIEqWhYi-72" value="" style="shape=partialRectangle;collapsible=0;dropTarget=0;pointerEvents=0;fillColor=none;top=0;left=0;bottom=0;right=0;points=[[0,0.5],[1,0.5]];portConstraint=eastwest;" vertex="1" parent="Y6hz9hV52p69HIEqWhYi-65">
          <mxGeometry y="90" width="180" height="30" as="geometry" />
        </mxCell>
        <mxCell id="Y6hz9hV52p69HIEqWhYi-73" value="FK" style="shape=partialRectangle;connectable=0;fillColor=none;top=0;left=0;bottom=0;right=0;editable=1;overflow=hidden;" vertex="1" parent="Y6hz9hV52p69HIEqWhYi-72">
          <mxGeometry width="30" height="30" as="geometry" />
        </mxCell>
        <mxCell id="Y6hz9hV52p69HIEqWhYi-74" value="sub_cat_id" style="shape=partialRectangle;connectable=0;fillColor=none;top=0;left=0;bottom=0;right=0;align=left;spacingLeft=6;overflow=hidden;" vertex="1" parent="Y6hz9hV52p69HIEqWhYi-72">
          <mxGeometry x="30" width="150" height="30" as="geometry" />
        </mxCell>
        <mxCell id="Y6hz9hV52p69HIEqWhYi-75" value="" style="shape=partialRectangle;collapsible=0;dropTarget=0;pointerEvents=0;fillColor=none;top=0;left=0;bottom=0;right=0;points=[[0,0.5],[1,0.5]];portConstraint=eastwest;" vertex="1" parent="Y6hz9hV52p69HIEqWhYi-65">
          <mxGeometry y="120" width="180" height="30" as="geometry" />
        </mxCell>
        <mxCell id="Y6hz9hV52p69HIEqWhYi-76" value="" style="shape=partialRectangle;connectable=0;fillColor=none;top=0;left=0;bottom=0;right=0;editable=1;overflow=hidden;" vertex="1" parent="Y6hz9hV52p69HIEqWhYi-75">
          <mxGeometry width="30" height="30" as="geometry" />
        </mxCell>
        <mxCell id="Y6hz9hV52p69HIEqWhYi-77" value="price" style="shape=partialRectangle;connectable=0;fillColor=none;top=0;left=0;bottom=0;right=0;align=left;spacingLeft=6;overflow=hidden;" vertex="1" parent="Y6hz9hV52p69HIEqWhYi-75">
          <mxGeometry x="30" width="150" height="30" as="geometry" />
        </mxCell>
        <mxCell id="Y6hz9hV52p69HIEqWhYi-180" value="" style="shape=partialRectangle;collapsible=0;dropTarget=0;pointerEvents=0;fillColor=none;top=0;left=0;bottom=0;right=0;points=[[0,0.5],[1,0.5]];portConstraint=eastwest;" vertex="1" parent="Y6hz9hV52p69HIEqWhYi-65">
          <mxGeometry y="150" width="180" height="30" as="geometry" />
        </mxCell>
        <mxCell id="Y6hz9hV52p69HIEqWhYi-181" value="" style="shape=partialRectangle;connectable=0;fillColor=none;top=0;left=0;bottom=0;right=0;editable=1;overflow=hidden;" vertex="1" parent="Y6hz9hV52p69HIEqWhYi-180">
          <mxGeometry width="30" height="30" as="geometry" />
        </mxCell>
        <mxCell id="Y6hz9hV52p69HIEqWhYi-182" value="quantity" style="shape=partialRectangle;connectable=0;fillColor=none;top=0;left=0;bottom=0;right=0;align=left;spacingLeft=6;overflow=hidden;" vertex="1" parent="Y6hz9hV52p69HIEqWhYi-180">
          <mxGeometry x="30" width="150" height="30" as="geometry" />
        </mxCell>
        <mxCell id="Y6hz9hV52p69HIEqWhYi-184" value="" style="shape=partialRectangle;collapsible=0;dropTarget=0;pointerEvents=0;fillColor=none;top=0;left=0;bottom=0;right=0;points=[[0,0.5],[1,0.5]];portConstraint=eastwest;" vertex="1" parent="Y6hz9hV52p69HIEqWhYi-65">
          <mxGeometry y="180" width="180" height="30" as="geometry" />
        </mxCell>
        <mxCell id="Y6hz9hV52p69HIEqWhYi-185" value="" style="shape=partialRectangle;connectable=0;fillColor=none;top=0;left=0;bottom=0;right=0;editable=1;overflow=hidden;" vertex="1" parent="Y6hz9hV52p69HIEqWhYi-184">
          <mxGeometry width="30" height="30" as="geometry" />
        </mxCell>
        <mxCell id="Y6hz9hV52p69HIEqWhYi-186" value="creation_date" style="shape=partialRectangle;connectable=0;fillColor=none;top=0;left=0;bottom=0;right=0;align=left;spacingLeft=6;overflow=hidden;" vertex="1" parent="Y6hz9hV52p69HIEqWhYi-184">
          <mxGeometry x="30" width="150" height="30" as="geometry" />
        </mxCell>
        <mxCell id="Y6hz9hV52p69HIEqWhYi-188" value="" style="shape=partialRectangle;collapsible=0;dropTarget=0;pointerEvents=0;fillColor=none;top=0;left=0;bottom=0;right=0;points=[[0,0.5],[1,0.5]];portConstraint=eastwest;" vertex="1" parent="Y6hz9hV52p69HIEqWhYi-65">
          <mxGeometry y="210" width="180" height="30" as="geometry" />
        </mxCell>
        <mxCell id="Y6hz9hV52p69HIEqWhYi-189" value="" style="shape=partialRectangle;connectable=0;fillColor=none;top=0;left=0;bottom=0;right=0;editable=1;overflow=hidden;" vertex="1" parent="Y6hz9hV52p69HIEqWhYi-188">
          <mxGeometry width="30" height="30" as="geometry" />
        </mxCell>
        <mxCell id="Y6hz9hV52p69HIEqWhYi-190" value="updation_date" style="shape=partialRectangle;connectable=0;fillColor=none;top=0;left=0;bottom=0;right=0;align=left;spacingLeft=6;overflow=hidden;" vertex="1" parent="Y6hz9hV52p69HIEqWhYi-188">
          <mxGeometry x="30" width="150" height="30" as="geometry" />
        </mxCell>
        <mxCell id="Y6hz9hV52p69HIEqWhYi-78" value="COMMENTS" style="shape=table;startSize=30;container=1;collapsible=1;childLayout=tableLayout;fixedRows=1;rowLines=0;fontStyle=1;align=center;resizeLast=1;" vertex="1" parent="1">
          <mxGeometry x="300" y="290" width="180" height="250" as="geometry" />
        </mxCell>
        <mxCell id="Y6hz9hV52p69HIEqWhYi-79" value="" style="shape=partialRectangle;collapsible=0;dropTarget=0;pointerEvents=0;fillColor=none;top=0;left=0;bottom=1;right=0;points=[[0,0.5],[1,0.5]];portConstraint=eastwest;" vertex="1" parent="Y6hz9hV52p69HIEqWhYi-78">
          <mxGeometry y="30" width="180" height="30" as="geometry" />
        </mxCell>
        <mxCell id="Y6hz9hV52p69HIEqWhYi-80" value="PK" style="shape=partialRectangle;connectable=0;fillColor=none;top=0;left=0;bottom=0;right=0;fontStyle=1;overflow=hidden;" vertex="1" parent="Y6hz9hV52p69HIEqWhYi-79">
          <mxGeometry width="30" height="30" as="geometry" />
        </mxCell>
        <mxCell id="Y6hz9hV52p69HIEqWhYi-81" value="cid" style="shape=partialRectangle;connectable=0;fillColor=none;top=0;left=0;bottom=0;right=0;align=left;spacingLeft=6;fontStyle=5;overflow=hidden;" vertex="1" parent="Y6hz9hV52p69HIEqWhYi-79">
          <mxGeometry x="30" width="150" height="30" as="geometry" />
        </mxCell>
        <mxCell id="Y6hz9hV52p69HIEqWhYi-82" value="" style="shape=partialRectangle;collapsible=0;dropTarget=0;pointerEvents=0;fillColor=none;top=0;left=0;bottom=0;right=0;points=[[0,0.5],[1,0.5]];portConstraint=eastwest;" vertex="1" parent="Y6hz9hV52p69HIEqWhYi-78">
          <mxGeometry y="60" width="180" height="30" as="geometry" />
        </mxCell>
        <mxCell id="Y6hz9hV52p69HIEqWhYi-83" value="FK" style="shape=partialRectangle;connectable=0;fillColor=none;top=0;left=0;bottom=0;right=0;editable=1;overflow=hidden;" vertex="1" parent="Y6hz9hV52p69HIEqWhYi-82">
          <mxGeometry width="30" height="30" as="geometry" />
        </mxCell>
        <mxCell id="Y6hz9hV52p69HIEqWhYi-84" value="user_id" style="shape=partialRectangle;connectable=0;fillColor=none;top=0;left=0;bottom=0;right=0;align=left;spacingLeft=6;overflow=hidden;" vertex="1" parent="Y6hz9hV52p69HIEqWhYi-82">
          <mxGeometry x="30" width="150" height="30" as="geometry" />
        </mxCell>
        <mxCell id="Y6hz9hV52p69HIEqWhYi-85" value="" style="shape=partialRectangle;collapsible=0;dropTarget=0;pointerEvents=0;fillColor=none;top=0;left=0;bottom=0;right=0;points=[[0,0.5],[1,0.5]];portConstraint=eastwest;" vertex="1" parent="Y6hz9hV52p69HIEqWhYi-78">
          <mxGeometry y="90" width="180" height="30" as="geometry" />
        </mxCell>
        <mxCell id="Y6hz9hV52p69HIEqWhYi-86" value="FK" style="shape=partialRectangle;connectable=0;fillColor=none;top=0;left=0;bottom=0;right=0;editable=1;overflow=hidden;" vertex="1" parent="Y6hz9hV52p69HIEqWhYi-85">
          <mxGeometry width="30" height="30" as="geometry" />
        </mxCell>
        <mxCell id="Y6hz9hV52p69HIEqWhYi-87" value="prod_id" style="shape=partialRectangle;connectable=0;fillColor=none;top=0;left=0;bottom=0;right=0;align=left;spacingLeft=6;overflow=hidden;" vertex="1" parent="Y6hz9hV52p69HIEqWhYi-85">
          <mxGeometry x="30" width="150" height="30" as="geometry" />
        </mxCell>
        <mxCell id="Y6hz9hV52p69HIEqWhYi-88" value="" style="shape=partialRectangle;collapsible=0;dropTarget=0;pointerEvents=0;fillColor=none;top=0;left=0;bottom=0;right=0;points=[[0,0.5],[1,0.5]];portConstraint=eastwest;" vertex="1" parent="Y6hz9hV52p69HIEqWhYi-78">
          <mxGeometry y="120" width="180" height="30" as="geometry" />
        </mxCell>
        <mxCell id="Y6hz9hV52p69HIEqWhYi-89" value="" style="shape=partialRectangle;connectable=0;fillColor=none;top=0;left=0;bottom=0;right=0;editable=1;overflow=hidden;" vertex="1" parent="Y6hz9hV52p69HIEqWhYi-88">
          <mxGeometry width="30" height="30" as="geometry" />
        </mxCell>
        <mxCell id="Y6hz9hV52p69HIEqWhYi-90" value="comment" style="shape=partialRectangle;connectable=0;fillColor=none;top=0;left=0;bottom=0;right=0;align=left;spacingLeft=6;overflow=hidden;" vertex="1" parent="Y6hz9hV52p69HIEqWhYi-88">
          <mxGeometry x="30" width="150" height="30" as="geometry" />
        </mxCell>
        <mxCell id="Y6hz9hV52p69HIEqWhYi-168" value="" style="shape=partialRectangle;collapsible=0;dropTarget=0;pointerEvents=0;fillColor=none;top=0;left=0;bottom=0;right=0;points=[[0,0.5],[1,0.5]];portConstraint=eastwest;" vertex="1" parent="Y6hz9hV52p69HIEqWhYi-78">
          <mxGeometry y="150" width="180" height="30" as="geometry" />
        </mxCell>
        <mxCell id="Y6hz9hV52p69HIEqWhYi-169" value="" style="shape=partialRectangle;connectable=0;fillColor=none;top=0;left=0;bottom=0;right=0;editable=1;overflow=hidden;" vertex="1" parent="Y6hz9hV52p69HIEqWhYi-168">
          <mxGeometry width="30" height="30" as="geometry" />
        </mxCell>
        <mxCell id="Y6hz9hV52p69HIEqWhYi-170" value="rating" style="shape=partialRectangle;connectable=0;fillColor=none;top=0;left=0;bottom=0;right=0;align=left;spacingLeft=6;overflow=hidden;" vertex="1" parent="Y6hz9hV52p69HIEqWhYi-168">
          <mxGeometry x="30" width="150" height="30" as="geometry" />
        </mxCell>
        <mxCell id="Y6hz9hV52p69HIEqWhYi-172" value="" style="shape=partialRectangle;collapsible=0;dropTarget=0;pointerEvents=0;fillColor=none;top=0;left=0;bottom=0;right=0;points=[[0,0.5],[1,0.5]];portConstraint=eastwest;" vertex="1" parent="Y6hz9hV52p69HIEqWhYi-78">
          <mxGeometry y="180" width="180" height="30" as="geometry" />
        </mxCell>
        <mxCell id="Y6hz9hV52p69HIEqWhYi-173" value="" style="shape=partialRectangle;connectable=0;fillColor=none;top=0;left=0;bottom=0;right=0;editable=1;overflow=hidden;" vertex="1" parent="Y6hz9hV52p69HIEqWhYi-172">
          <mxGeometry width="30" height="30" as="geometry" />
        </mxCell>
        <mxCell id="Y6hz9hV52p69HIEqWhYi-174" value="creation date" style="shape=partialRectangle;connectable=0;fillColor=none;top=0;left=0;bottom=0;right=0;align=left;spacingLeft=6;overflow=hidden;" vertex="1" parent="Y6hz9hV52p69HIEqWhYi-172">
          <mxGeometry x="30" width="150" height="30" as="geometry" />
        </mxCell>
        <mxCell id="Y6hz9hV52p69HIEqWhYi-176" value="" style="shape=partialRectangle;collapsible=0;dropTarget=0;pointerEvents=0;fillColor=none;top=0;left=0;bottom=0;right=0;points=[[0,0.5],[1,0.5]];portConstraint=eastwest;" vertex="1" parent="Y6hz9hV52p69HIEqWhYi-78">
          <mxGeometry y="210" width="180" height="30" as="geometry" />
        </mxCell>
        <mxCell id="Y6hz9hV52p69HIEqWhYi-177" value="" style="shape=partialRectangle;connectable=0;fillColor=none;top=0;left=0;bottom=0;right=0;editable=1;overflow=hidden;" vertex="1" parent="Y6hz9hV52p69HIEqWhYi-176">
          <mxGeometry width="30" height="30" as="geometry" />
        </mxCell>
        <mxCell id="Y6hz9hV52p69HIEqWhYi-178" value="updation_date" style="shape=partialRectangle;connectable=0;fillColor=none;top=0;left=0;bottom=0;right=0;align=left;spacingLeft=6;overflow=hidden;" vertex="1" parent="Y6hz9hV52p69HIEqWhYi-176">
          <mxGeometry x="30" width="150" height="30" as="geometry" />
        </mxCell>
        <mxCell id="Y6hz9hV52p69HIEqWhYi-91" value="USER" style="shape=table;startSize=30;container=1;collapsible=1;childLayout=tableLayout;fixedRows=1;rowLines=0;fontStyle=5;align=center;resizeLast=1;" vertex="1" parent="1">
          <mxGeometry x="600" y="120" width="150" height="340" as="geometry" />
        </mxCell>
        <mxCell id="Y6hz9hV52p69HIEqWhYi-92" value="" style="shape=partialRectangle;collapsible=0;dropTarget=0;pointerEvents=0;fillColor=none;top=0;left=0;bottom=1;right=0;points=[[0,0.5],[1,0.5]];portConstraint=eastwest;" vertex="1" parent="Y6hz9hV52p69HIEqWhYi-91">
          <mxGeometry y="30" width="150" height="30" as="geometry" />
        </mxCell>
        <mxCell id="Y6hz9hV52p69HIEqWhYi-93" value="PK" style="shape=partialRectangle;connectable=0;fillColor=none;top=0;left=0;bottom=0;right=0;fontStyle=1;overflow=hidden;" vertex="1" parent="Y6hz9hV52p69HIEqWhYi-92">
          <mxGeometry width="30" height="30" as="geometry" />
        </mxCell>
        <mxCell id="Y6hz9hV52p69HIEqWhYi-94" value="user_id" style="shape=partialRectangle;connectable=0;fillColor=none;top=0;left=0;bottom=0;right=0;align=left;spacingLeft=6;fontStyle=5;overflow=hidden;" vertex="1" parent="Y6hz9hV52p69HIEqWhYi-92">
          <mxGeometry x="30" width="120" height="30" as="geometry" />
        </mxCell>
        <mxCell id="Y6hz9hV52p69HIEqWhYi-101" value="" style="shape=partialRectangle;collapsible=0;dropTarget=0;pointerEvents=0;fillColor=none;top=0;left=0;bottom=0;right=0;points=[[0,0.5],[1,0.5]];portConstraint=eastwest;" vertex="1" parent="Y6hz9hV52p69HIEqWhYi-91">
          <mxGeometry y="60" width="150" height="30" as="geometry" />
        </mxCell>
        <mxCell id="Y6hz9hV52p69HIEqWhYi-102" value="" style="shape=partialRectangle;connectable=0;fillColor=none;top=0;left=0;bottom=0;right=0;editable=1;overflow=hidden;" vertex="1" parent="Y6hz9hV52p69HIEqWhYi-101">
          <mxGeometry width="30" height="30" as="geometry" />
        </mxCell>
        <mxCell id="Y6hz9hV52p69HIEqWhYi-103" value="name" style="shape=partialRectangle;connectable=0;fillColor=none;top=0;left=0;bottom=0;right=0;align=left;spacingLeft=6;overflow=hidden;" vertex="1" parent="Y6hz9hV52p69HIEqWhYi-101">
          <mxGeometry x="30" width="120" height="30" as="geometry" />
        </mxCell>
        <mxCell id="Y6hz9hV52p69HIEqWhYi-95" value="" style="shape=partialRectangle;collapsible=0;dropTarget=0;pointerEvents=0;fillColor=none;top=0;left=0;bottom=0;right=0;points=[[0,0.5],[1,0.5]];portConstraint=eastwest;" vertex="1" parent="Y6hz9hV52p69HIEqWhYi-91">
          <mxGeometry y="90" width="150" height="40" as="geometry" />
        </mxCell>
        <mxCell id="Y6hz9hV52p69HIEqWhYi-96" value="" style="shape=partialRectangle;connectable=0;fillColor=none;top=0;left=0;bottom=0;right=0;editable=1;overflow=hidden;" vertex="1" parent="Y6hz9hV52p69HIEqWhYi-95">
          <mxGeometry width="30" height="40" as="geometry" />
        </mxCell>
        <mxCell id="Y6hz9hV52p69HIEqWhYi-97" value="email" style="shape=partialRectangle;connectable=0;fillColor=none;top=0;left=0;bottom=0;right=0;align=left;spacingLeft=6;overflow=hidden;" vertex="1" parent="Y6hz9hV52p69HIEqWhYi-95">
          <mxGeometry x="30" width="120" height="40" as="geometry" />
        </mxCell>
        <mxCell id="Y6hz9hV52p69HIEqWhYi-98" value="" style="shape=partialRectangle;collapsible=0;dropTarget=0;pointerEvents=0;fillColor=none;top=0;left=0;bottom=0;right=0;points=[[0,0.5],[1,0.5]];portConstraint=eastwest;" vertex="1" parent="Y6hz9hV52p69HIEqWhYi-91">
          <mxGeometry y="130" width="150" height="30" as="geometry" />
        </mxCell>
        <mxCell id="Y6hz9hV52p69HIEqWhYi-99" value="" style="shape=partialRectangle;connectable=0;fillColor=none;top=0;left=0;bottom=0;right=0;editable=1;overflow=hidden;" vertex="1" parent="Y6hz9hV52p69HIEqWhYi-98">
          <mxGeometry width="30" height="30" as="geometry" />
        </mxCell>
        <mxCell id="Y6hz9hV52p69HIEqWhYi-100" value="password" style="shape=partialRectangle;connectable=0;fillColor=none;top=0;left=0;bottom=0;right=0;align=left;spacingLeft=6;overflow=hidden;" vertex="1" parent="Y6hz9hV52p69HIEqWhYi-98">
          <mxGeometry x="30" width="120" height="30" as="geometry" />
        </mxCell>
        <mxCell id="Y6hz9hV52p69HIEqWhYi-144" value="" style="shape=partialRectangle;collapsible=0;dropTarget=0;pointerEvents=0;fillColor=none;top=0;left=0;bottom=0;right=0;points=[[0,0.5],[1,0.5]];portConstraint=eastwest;" vertex="1" parent="Y6hz9hV52p69HIEqWhYi-91">
          <mxGeometry y="160" width="150" height="30" as="geometry" />
        </mxCell>
        <mxCell id="Y6hz9hV52p69HIEqWhYi-145" value="" style="shape=partialRectangle;connectable=0;fillColor=none;top=0;left=0;bottom=0;right=0;editable=1;overflow=hidden;" vertex="1" parent="Y6hz9hV52p69HIEqWhYi-144">
          <mxGeometry width="30" height="30" as="geometry" />
        </mxCell>
        <mxCell id="Y6hz9hV52p69HIEqWhYi-146" value="phone" style="shape=partialRectangle;connectable=0;fillColor=none;top=0;left=0;bottom=0;right=0;align=left;spacingLeft=6;overflow=hidden;" vertex="1" parent="Y6hz9hV52p69HIEqWhYi-144">
          <mxGeometry x="30" width="120" height="30" as="geometry" />
        </mxCell>
        <mxCell id="Y6hz9hV52p69HIEqWhYi-148" value="" style="shape=partialRectangle;collapsible=0;dropTarget=0;pointerEvents=0;fillColor=none;top=0;left=0;bottom=0;right=0;points=[[0,0.5],[1,0.5]];portConstraint=eastwest;" vertex="1" parent="Y6hz9hV52p69HIEqWhYi-91">
          <mxGeometry y="190" width="150" height="30" as="geometry" />
        </mxCell>
        <mxCell id="Y6hz9hV52p69HIEqWhYi-149" value="" style="shape=partialRectangle;connectable=0;fillColor=none;top=0;left=0;bottom=0;right=0;editable=1;overflow=hidden;" vertex="1" parent="Y6hz9hV52p69HIEqWhYi-148">
          <mxGeometry width="30" height="30" as="geometry" />
        </mxCell>
        <mxCell id="Y6hz9hV52p69HIEqWhYi-150" value="address" style="shape=partialRectangle;connectable=0;fillColor=none;top=0;left=0;bottom=0;right=0;align=left;spacingLeft=6;overflow=hidden;" vertex="1" parent="Y6hz9hV52p69HIEqWhYi-148">
          <mxGeometry x="30" width="120" height="30" as="geometry" />
        </mxCell>
        <mxCell id="Y6hz9hV52p69HIEqWhYi-152" value="" style="shape=partialRectangle;collapsible=0;dropTarget=0;pointerEvents=0;fillColor=none;top=0;left=0;bottom=0;right=0;points=[[0,0.5],[1,0.5]];portConstraint=eastwest;" vertex="1" parent="Y6hz9hV52p69HIEqWhYi-91">
          <mxGeometry y="220" width="150" height="30" as="geometry" />
        </mxCell>
        <mxCell id="Y6hz9hV52p69HIEqWhYi-153" value="" style="shape=partialRectangle;connectable=0;fillColor=none;top=0;left=0;bottom=0;right=0;editable=1;overflow=hidden;" vertex="1" parent="Y6hz9hV52p69HIEqWhYi-152">
          <mxGeometry width="30" height="30" as="geometry" />
        </mxCell>
        <mxCell id="Y6hz9hV52p69HIEqWhYi-154" value="gender" style="shape=partialRectangle;connectable=0;fillColor=none;top=0;left=0;bottom=0;right=0;align=left;spacingLeft=6;overflow=hidden;" vertex="1" parent="Y6hz9hV52p69HIEqWhYi-152">
          <mxGeometry x="30" width="120" height="30" as="geometry" />
        </mxCell>
        <mxCell id="Y6hz9hV52p69HIEqWhYi-156" value="" style="shape=partialRectangle;collapsible=0;dropTarget=0;pointerEvents=0;fillColor=none;top=0;left=0;bottom=0;right=0;points=[[0,0.5],[1,0.5]];portConstraint=eastwest;" vertex="1" parent="Y6hz9hV52p69HIEqWhYi-91">
          <mxGeometry y="250" width="150" height="30" as="geometry" />
        </mxCell>
        <mxCell id="Y6hz9hV52p69HIEqWhYi-157" value="" style="shape=partialRectangle;connectable=0;fillColor=none;top=0;left=0;bottom=0;right=0;editable=1;overflow=hidden;" vertex="1" parent="Y6hz9hV52p69HIEqWhYi-156">
          <mxGeometry width="30" height="30" as="geometry" />
        </mxCell>
        <mxCell id="Y6hz9hV52p69HIEqWhYi-158" value="is_active" style="shape=partialRectangle;connectable=0;fillColor=none;top=0;left=0;bottom=0;right=0;align=left;spacingLeft=6;overflow=hidden;" vertex="1" parent="Y6hz9hV52p69HIEqWhYi-156">
          <mxGeometry x="30" width="120" height="30" as="geometry" />
        </mxCell>
        <mxCell id="Y6hz9hV52p69HIEqWhYi-160" value="" style="shape=partialRectangle;collapsible=0;dropTarget=0;pointerEvents=0;fillColor=none;top=0;left=0;bottom=0;right=0;points=[[0,0.5],[1,0.5]];portConstraint=eastwest;" vertex="1" parent="Y6hz9hV52p69HIEqWhYi-91">
          <mxGeometry y="280" width="150" height="30" as="geometry" />
        </mxCell>
        <mxCell id="Y6hz9hV52p69HIEqWhYi-161" value="" style="shape=partialRectangle;connectable=0;fillColor=none;top=0;left=0;bottom=0;right=0;editable=1;overflow=hidden;" vertex="1" parent="Y6hz9hV52p69HIEqWhYi-160">
          <mxGeometry width="30" height="30" as="geometry" />
        </mxCell>
        <mxCell id="Y6hz9hV52p69HIEqWhYi-162" value="creation_date" style="shape=partialRectangle;connectable=0;fillColor=none;top=0;left=0;bottom=0;right=0;align=left;spacingLeft=6;overflow=hidden;" vertex="1" parent="Y6hz9hV52p69HIEqWhYi-160">
          <mxGeometry x="30" width="120" height="30" as="geometry" />
        </mxCell>
        <mxCell id="Y6hz9hV52p69HIEqWhYi-164" value="" style="shape=partialRectangle;collapsible=0;dropTarget=0;pointerEvents=0;fillColor=none;top=0;left=0;bottom=0;right=0;points=[[0,0.5],[1,0.5]];portConstraint=eastwest;" vertex="1" parent="Y6hz9hV52p69HIEqWhYi-91">
          <mxGeometry y="310" width="150" height="30" as="geometry" />
        </mxCell>
        <mxCell id="Y6hz9hV52p69HIEqWhYi-165" value="" style="shape=partialRectangle;connectable=0;fillColor=none;top=0;left=0;bottom=0;right=0;editable=1;overflow=hidden;" vertex="1" parent="Y6hz9hV52p69HIEqWhYi-164">
          <mxGeometry width="30" height="30" as="geometry" />
        </mxCell>
        <mxCell id="Y6hz9hV52p69HIEqWhYi-166" value="updation_date" style="shape=partialRectangle;connectable=0;fillColor=none;top=0;left=0;bottom=0;right=0;align=left;spacingLeft=6;overflow=hidden;" vertex="1" parent="Y6hz9hV52p69HIEqWhYi-164">
          <mxGeometry x="30" width="120" height="30" as="geometry" />
        </mxCell>
        <mxCell id="Y6hz9hV52p69HIEqWhYi-104" value="ORDER" style="shape=table;startSize=40;container=1;collapsible=1;childLayout=tableLayout;fixedRows=1;rowLines=0;fontStyle=1;align=center;resizeLast=1;" vertex="1" parent="1">
          <mxGeometry x="320" y="570" width="180" height="380" as="geometry" />
        </mxCell>
        <mxCell id="Y6hz9hV52p69HIEqWhYi-105" value="" style="shape=partialRectangle;collapsible=0;dropTarget=0;pointerEvents=0;fillColor=none;top=0;left=0;bottom=1;right=0;points=[[0,0.5],[1,0.5]];portConstraint=eastwest;" vertex="1" parent="Y6hz9hV52p69HIEqWhYi-104">
          <mxGeometry y="40" width="180" height="20" as="geometry" />
        </mxCell>
        <mxCell id="Y6hz9hV52p69HIEqWhYi-106" value="PK" style="shape=partialRectangle;connectable=0;fillColor=none;top=0;left=0;bottom=0;right=0;fontStyle=1;overflow=hidden;" vertex="1" parent="Y6hz9hV52p69HIEqWhYi-105">
          <mxGeometry width="30" height="20" as="geometry" />
        </mxCell>
        <mxCell id="Y6hz9hV52p69HIEqWhYi-107" value="ord_no" style="shape=partialRectangle;connectable=0;fillColor=none;top=0;left=0;bottom=0;right=0;align=left;spacingLeft=6;fontStyle=5;overflow=hidden;" vertex="1" parent="Y6hz9hV52p69HIEqWhYi-105">
          <mxGeometry x="30" width="150" height="20" as="geometry" />
        </mxCell>
        <mxCell id="Y6hz9hV52p69HIEqWhYi-108" value="" style="shape=partialRectangle;collapsible=0;dropTarget=0;pointerEvents=0;fillColor=none;top=0;left=0;bottom=0;right=0;points=[[0,0.5],[1,0.5]];portConstraint=eastwest;" vertex="1" parent="Y6hz9hV52p69HIEqWhYi-104">
          <mxGeometry y="60" width="180" height="30" as="geometry" />
        </mxCell>
        <mxCell id="Y6hz9hV52p69HIEqWhYi-109" value="FK" style="shape=partialRectangle;connectable=0;fillColor=none;top=0;left=0;bottom=0;right=0;editable=1;overflow=hidden;" vertex="1" parent="Y6hz9hV52p69HIEqWhYi-108">
          <mxGeometry width="30" height="30" as="geometry" />
        </mxCell>
        <mxCell id="Y6hz9hV52p69HIEqWhYi-110" value="user_id" style="shape=partialRectangle;connectable=0;fillColor=none;top=0;left=0;bottom=0;right=0;align=left;spacingLeft=6;overflow=hidden;" vertex="1" parent="Y6hz9hV52p69HIEqWhYi-108">
          <mxGeometry x="30" width="150" height="30" as="geometry" />
        </mxCell>
        <mxCell id="Y6hz9hV52p69HIEqWhYi-111" value="" style="shape=partialRectangle;collapsible=0;dropTarget=0;pointerEvents=0;fillColor=none;top=0;left=0;bottom=0;right=0;points=[[0,0.5],[1,0.5]];portConstraint=eastwest;" vertex="1" parent="Y6hz9hV52p69HIEqWhYi-104">
          <mxGeometry y="90" width="180" height="30" as="geometry" />
        </mxCell>
        <mxCell id="Y6hz9hV52p69HIEqWhYi-112" value="FK" style="shape=partialRectangle;connectable=0;fillColor=none;top=0;left=0;bottom=0;right=0;editable=1;overflow=hidden;" vertex="1" parent="Y6hz9hV52p69HIEqWhYi-111">
          <mxGeometry width="30" height="30" as="geometry" />
        </mxCell>
        <mxCell id="Y6hz9hV52p69HIEqWhYi-113" value="prod_id" style="shape=partialRectangle;connectable=0;fillColor=none;top=0;left=0;bottom=0;right=0;align=left;spacingLeft=6;overflow=hidden;" vertex="1" parent="Y6hz9hV52p69HIEqWhYi-111">
          <mxGeometry x="30" width="150" height="30" as="geometry" />
        </mxCell>
        <mxCell id="Y6hz9hV52p69HIEqWhYi-114" value="" style="shape=partialRectangle;collapsible=0;dropTarget=0;pointerEvents=0;fillColor=none;top=0;left=0;bottom=0;right=0;points=[[0,0.5],[1,0.5]];portConstraint=eastwest;" vertex="1" parent="Y6hz9hV52p69HIEqWhYi-104">
          <mxGeometry y="120" width="180" height="30" as="geometry" />
        </mxCell>
        <mxCell id="Y6hz9hV52p69HIEqWhYi-115" value="" style="shape=partialRectangle;connectable=0;fillColor=none;top=0;left=0;bottom=0;right=0;editable=1;overflow=hidden;" vertex="1" parent="Y6hz9hV52p69HIEqWhYi-114">
          <mxGeometry width="30" height="30" as="geometry" />
        </mxCell>
        <mxCell id="Y6hz9hV52p69HIEqWhYi-116" value="quantity_order" style="shape=partialRectangle;connectable=0;fillColor=none;top=0;left=0;bottom=0;right=0;align=left;spacingLeft=6;overflow=hidden;" vertex="1" parent="Y6hz9hV52p69HIEqWhYi-114">
          <mxGeometry x="30" width="150" height="30" as="geometry" />
        </mxCell>
        <mxCell id="Y6hz9hV52p69HIEqWhYi-192" value="" style="shape=partialRectangle;collapsible=0;dropTarget=0;pointerEvents=0;fillColor=none;top=0;left=0;bottom=0;right=0;points=[[0,0.5],[1,0.5]];portConstraint=eastwest;" vertex="1" parent="Y6hz9hV52p69HIEqWhYi-104">
          <mxGeometry y="150" width="180" height="30" as="geometry" />
        </mxCell>
        <mxCell id="Y6hz9hV52p69HIEqWhYi-193" value="" style="shape=partialRectangle;connectable=0;fillColor=none;top=0;left=0;bottom=0;right=0;editable=1;overflow=hidden;" vertex="1" parent="Y6hz9hV52p69HIEqWhYi-192">
          <mxGeometry width="30" height="30" as="geometry" />
        </mxCell>
        <mxCell id="Y6hz9hV52p69HIEqWhYi-194" value="address" style="shape=partialRectangle;connectable=0;fillColor=none;top=0;left=0;bottom=0;right=0;align=left;spacingLeft=6;overflow=hidden;" vertex="1" parent="Y6hz9hV52p69HIEqWhYi-192">
          <mxGeometry x="30" width="150" height="30" as="geometry" />
        </mxCell>
        <mxCell id="Y6hz9hV52p69HIEqWhYi-196" value="" style="shape=partialRectangle;collapsible=0;dropTarget=0;pointerEvents=0;fillColor=none;top=0;left=0;bottom=0;right=0;points=[[0,0.5],[1,0.5]];portConstraint=eastwest;" vertex="1" parent="Y6hz9hV52p69HIEqWhYi-104">
          <mxGeometry y="180" width="180" height="30" as="geometry" />
        </mxCell>
        <mxCell id="Y6hz9hV52p69HIEqWhYi-197" value="" style="shape=partialRectangle;connectable=0;fillColor=none;top=0;left=0;bottom=0;right=0;editable=1;overflow=hidden;" vertex="1" parent="Y6hz9hV52p69HIEqWhYi-196">
          <mxGeometry width="30" height="30" as="geometry" />
        </mxCell>
        <mxCell id="Y6hz9hV52p69HIEqWhYi-198" value="ship_date" style="shape=partialRectangle;connectable=0;fillColor=none;top=0;left=0;bottom=0;right=0;align=left;spacingLeft=6;overflow=hidden;" vertex="1" parent="Y6hz9hV52p69HIEqWhYi-196">
          <mxGeometry x="30" width="150" height="30" as="geometry" />
        </mxCell>
        <mxCell id="Y6hz9hV52p69HIEqWhYi-200" value="" style="shape=partialRectangle;collapsible=0;dropTarget=0;pointerEvents=0;fillColor=none;top=0;left=0;bottom=0;right=0;points=[[0,0.5],[1,0.5]];portConstraint=eastwest;" vertex="1" parent="Y6hz9hV52p69HIEqWhYi-104">
          <mxGeometry y="210" width="180" height="30" as="geometry" />
        </mxCell>
        <mxCell id="Y6hz9hV52p69HIEqWhYi-201" value="" style="shape=partialRectangle;connectable=0;fillColor=none;top=0;left=0;bottom=0;right=0;editable=1;overflow=hidden;" vertex="1" parent="Y6hz9hV52p69HIEqWhYi-200">
          <mxGeometry width="30" height="30" as="geometry" />
        </mxCell>
        <mxCell id="Y6hz9hV52p69HIEqWhYi-202" value="status" style="shape=partialRectangle;connectable=0;fillColor=none;top=0;left=0;bottom=0;right=0;align=left;spacingLeft=6;overflow=hidden;" vertex="1" parent="Y6hz9hV52p69HIEqWhYi-200">
          <mxGeometry x="30" width="150" height="30" as="geometry" />
        </mxCell>
        <mxCell id="Y6hz9hV52p69HIEqWhYi-204" value="" style="shape=partialRectangle;collapsible=0;dropTarget=0;pointerEvents=0;fillColor=none;top=0;left=0;bottom=0;right=0;points=[[0,0.5],[1,0.5]];portConstraint=eastwest;" vertex="1" parent="Y6hz9hV52p69HIEqWhYi-104">
          <mxGeometry y="240" width="180" height="30" as="geometry" />
        </mxCell>
        <mxCell id="Y6hz9hV52p69HIEqWhYi-205" value="" style="shape=partialRectangle;connectable=0;fillColor=none;top=0;left=0;bottom=0;right=0;editable=1;overflow=hidden;" vertex="1" parent="Y6hz9hV52p69HIEqWhYi-204">
          <mxGeometry width="30" height="30" as="geometry" />
        </mxCell>
        <mxCell id="Y6hz9hV52p69HIEqWhYi-206" value="is_payment_done" style="shape=partialRectangle;connectable=0;fillColor=none;top=0;left=0;bottom=0;right=0;align=left;spacingLeft=6;overflow=hidden;" vertex="1" parent="Y6hz9hV52p69HIEqWhYi-204">
          <mxGeometry x="30" width="150" height="30" as="geometry" />
        </mxCell>
        <mxCell id="Y6hz9hV52p69HIEqWhYi-208" value="" style="shape=partialRectangle;collapsible=0;dropTarget=0;pointerEvents=0;fillColor=none;top=0;left=0;bottom=0;right=0;points=[[0,0.5],[1,0.5]];portConstraint=eastwest;" vertex="1" parent="Y6hz9hV52p69HIEqWhYi-104">
          <mxGeometry y="270" width="180" height="30" as="geometry" />
        </mxCell>
        <mxCell id="Y6hz9hV52p69HIEqWhYi-209" value="" style="shape=partialRectangle;connectable=0;fillColor=none;top=0;left=0;bottom=0;right=0;editable=1;overflow=hidden;" vertex="1" parent="Y6hz9hV52p69HIEqWhYi-208">
          <mxGeometry width="30" height="30" as="geometry" />
        </mxCell>
        <mxCell id="Y6hz9hV52p69HIEqWhYi-210" value="payment_details" style="shape=partialRectangle;connectable=0;fillColor=none;top=0;left=0;bottom=0;right=0;align=left;spacingLeft=6;overflow=hidden;" vertex="1" parent="Y6hz9hV52p69HIEqWhYi-208">
          <mxGeometry x="30" width="150" height="30" as="geometry" />
        </mxCell>
        <mxCell id="Y6hz9hV52p69HIEqWhYi-216" value="" style="shape=partialRectangle;collapsible=0;dropTarget=0;pointerEvents=0;fillColor=none;top=0;left=0;bottom=0;right=0;points=[[0,0.5],[1,0.5]];portConstraint=eastwest;" vertex="1" parent="Y6hz9hV52p69HIEqWhYi-104">
          <mxGeometry y="300" width="180" height="30" as="geometry" />
        </mxCell>
        <mxCell id="Y6hz9hV52p69HIEqWhYi-217" value="" style="shape=partialRectangle;connectable=0;fillColor=none;top=0;left=0;bottom=0;right=0;editable=1;overflow=hidden;" vertex="1" parent="Y6hz9hV52p69HIEqWhYi-216">
          <mxGeometry width="30" height="30" as="geometry" />
        </mxCell>
        <mxCell id="Y6hz9hV52p69HIEqWhYi-218" value="creation_date" style="shape=partialRectangle;connectable=0;fillColor=none;top=0;left=0;bottom=0;right=0;align=left;spacingLeft=6;overflow=hidden;" vertex="1" parent="Y6hz9hV52p69HIEqWhYi-216">
          <mxGeometry x="30" width="150" height="30" as="geometry" />
        </mxCell>
        <mxCell id="Y6hz9hV52p69HIEqWhYi-212" value="" style="shape=partialRectangle;collapsible=0;dropTarget=0;pointerEvents=0;fillColor=none;top=0;left=0;bottom=0;right=0;points=[[0,0.5],[1,0.5]];portConstraint=eastwest;" vertex="1" parent="Y6hz9hV52p69HIEqWhYi-104">
          <mxGeometry y="330" width="180" height="30" as="geometry" />
        </mxCell>
        <mxCell id="Y6hz9hV52p69HIEqWhYi-213" value="" style="shape=partialRectangle;connectable=0;fillColor=none;top=0;left=0;bottom=0;right=0;editable=1;overflow=hidden;" vertex="1" parent="Y6hz9hV52p69HIEqWhYi-212">
          <mxGeometry width="30" height="30" as="geometry" />
        </mxCell>
        <mxCell id="Y6hz9hV52p69HIEqWhYi-214" value="updation_date" style="shape=partialRectangle;connectable=0;fillColor=none;top=0;left=0;bottom=0;right=0;align=left;spacingLeft=6;overflow=hidden;" vertex="1" parent="Y6hz9hV52p69HIEqWhYi-212">
          <mxGeometry x="30" width="150" height="30" as="geometry" />
        </mxCell>
        <mxCell id="Y6hz9hV52p69HIEqWhYi-117" value="PAYMENT" style="shape=table;startSize=30;container=1;collapsible=1;childLayout=tableLayout;fixedRows=1;rowLines=0;fontStyle=1;align=center;resizeLast=1;" vertex="1" parent="1">
          <mxGeometry x="615" y="550" width="180" height="160" as="geometry" />
        </mxCell>
        <mxCell id="Y6hz9hV52p69HIEqWhYi-118" value="" style="shape=partialRectangle;collapsible=0;dropTarget=0;pointerEvents=0;fillColor=none;top=0;left=0;bottom=1;right=0;points=[[0,0.5],[1,0.5]];portConstraint=eastwest;" vertex="1" parent="Y6hz9hV52p69HIEqWhYi-117">
          <mxGeometry y="30" width="180" height="30" as="geometry" />
        </mxCell>
        <mxCell id="Y6hz9hV52p69HIEqWhYi-119" value="PK" style="shape=partialRectangle;connectable=0;fillColor=none;top=0;left=0;bottom=0;right=0;fontStyle=1;overflow=hidden;" vertex="1" parent="Y6hz9hV52p69HIEqWhYi-118">
          <mxGeometry width="30" height="30" as="geometry" />
        </mxCell>
        <mxCell id="Y6hz9hV52p69HIEqWhYi-120" value="pay_id" style="shape=partialRectangle;connectable=0;fillColor=none;top=0;left=0;bottom=0;right=0;align=left;spacingLeft=6;fontStyle=5;overflow=hidden;" vertex="1" parent="Y6hz9hV52p69HIEqWhYi-118">
          <mxGeometry x="30" width="150" height="30" as="geometry" />
        </mxCell>
        <mxCell id="Y6hz9hV52p69HIEqWhYi-121" value="" style="shape=partialRectangle;collapsible=0;dropTarget=0;pointerEvents=0;fillColor=none;top=0;left=0;bottom=0;right=0;points=[[0,0.5],[1,0.5]];portConstraint=eastwest;" vertex="1" parent="Y6hz9hV52p69HIEqWhYi-117">
          <mxGeometry y="60" width="180" height="30" as="geometry" />
        </mxCell>
        <mxCell id="Y6hz9hV52p69HIEqWhYi-122" value="FK" style="shape=partialRectangle;connectable=0;fillColor=none;top=0;left=0;bottom=0;right=0;editable=1;overflow=hidden;" vertex="1" parent="Y6hz9hV52p69HIEqWhYi-121">
          <mxGeometry width="30" height="30" as="geometry" />
        </mxCell>
        <mxCell id="Y6hz9hV52p69HIEqWhYi-123" value="user_id" style="shape=partialRectangle;connectable=0;fillColor=none;top=0;left=0;bottom=0;right=0;align=left;spacingLeft=6;overflow=hidden;" vertex="1" parent="Y6hz9hV52p69HIEqWhYi-121">
          <mxGeometry x="30" width="150" height="30" as="geometry" />
        </mxCell>
        <mxCell id="Y6hz9hV52p69HIEqWhYi-124" value="" style="shape=partialRectangle;collapsible=0;dropTarget=0;pointerEvents=0;fillColor=none;top=0;left=0;bottom=0;right=0;points=[[0,0.5],[1,0.5]];portConstraint=eastwest;" vertex="1" parent="Y6hz9hV52p69HIEqWhYi-117">
          <mxGeometry y="90" width="180" height="30" as="geometry" />
        </mxCell>
        <mxCell id="Y6hz9hV52p69HIEqWhYi-125" value="FK" style="shape=partialRectangle;connectable=0;fillColor=none;top=0;left=0;bottom=0;right=0;editable=1;overflow=hidden;" vertex="1" parent="Y6hz9hV52p69HIEqWhYi-124">
          <mxGeometry width="30" height="30" as="geometry" />
        </mxCell>
        <mxCell id="Y6hz9hV52p69HIEqWhYi-126" value="ord_no" style="shape=partialRectangle;connectable=0;fillColor=none;top=0;left=0;bottom=0;right=0;align=left;spacingLeft=6;overflow=hidden;" vertex="1" parent="Y6hz9hV52p69HIEqWhYi-124">
          <mxGeometry x="30" width="150" height="30" as="geometry" />
        </mxCell>
        <mxCell id="Y6hz9hV52p69HIEqWhYi-127" value="" style="shape=partialRectangle;collapsible=0;dropTarget=0;pointerEvents=0;fillColor=none;top=0;left=0;bottom=0;right=0;points=[[0,0.5],[1,0.5]];portConstraint=eastwest;" vertex="1" parent="Y6hz9hV52p69HIEqWhYi-117">
          <mxGeometry y="120" width="180" height="30" as="geometry" />
        </mxCell>
        <mxCell id="Y6hz9hV52p69HIEqWhYi-128" value="" style="shape=partialRectangle;connectable=0;fillColor=none;top=0;left=0;bottom=0;right=0;editable=1;overflow=hidden;" vertex="1" parent="Y6hz9hV52p69HIEqWhYi-127">
          <mxGeometry width="30" height="30" as="geometry" />
        </mxCell>
        <mxCell id="Y6hz9hV52p69HIEqWhYi-129" value="mode" style="shape=partialRectangle;connectable=0;fillColor=none;top=0;left=0;bottom=0;right=0;align=left;spacingLeft=6;overflow=hidden;" vertex="1" parent="Y6hz9hV52p69HIEqWhYi-127">
          <mxGeometry x="30" width="150" height="30" as="geometry" />
        </mxCell>
        <mxCell id="Y6hz9hV52p69HIEqWhYi-130" value="LOG" style="shape=table;startSize=40;container=1;collapsible=1;childLayout=tableLayout;fixedRows=1;rowLines=0;fontStyle=1;align=center;resizeLast=1;" vertex="1" parent="1">
          <mxGeometry x="340" y="980" width="180" height="300" as="geometry" />
        </mxCell>
        <mxCell id="Y6hz9hV52p69HIEqWhYi-131" value="" style="shape=partialRectangle;collapsible=0;dropTarget=0;pointerEvents=0;fillColor=none;top=0;left=0;bottom=1;right=0;points=[[0,0.5],[1,0.5]];portConstraint=eastwest;" vertex="1" parent="Y6hz9hV52p69HIEqWhYi-130">
          <mxGeometry y="40" width="180" height="30" as="geometry" />
        </mxCell>
        <mxCell id="Y6hz9hV52p69HIEqWhYi-132" value="PK" style="shape=partialRectangle;connectable=0;fillColor=none;top=0;left=0;bottom=0;right=0;fontStyle=1;overflow=hidden;" vertex="1" parent="Y6hz9hV52p69HIEqWhYi-131">
          <mxGeometry width="30" height="30" as="geometry" />
        </mxCell>
        <mxCell id="Y6hz9hV52p69HIEqWhYi-133" value="log_id" style="shape=partialRectangle;connectable=0;fillColor=none;top=0;left=0;bottom=0;right=0;align=left;spacingLeft=6;fontStyle=5;overflow=hidden;" vertex="1" parent="Y6hz9hV52p69HIEqWhYi-131">
          <mxGeometry x="30" width="150" height="30" as="geometry" />
        </mxCell>
        <mxCell id="Y6hz9hV52p69HIEqWhYi-137" value="" style="shape=partialRectangle;collapsible=0;dropTarget=0;pointerEvents=0;fillColor=none;top=0;left=0;bottom=0;right=0;points=[[0,0.5],[1,0.5]];portConstraint=eastwest;" vertex="1" parent="Y6hz9hV52p69HIEqWhYi-130">
          <mxGeometry y="70" width="180" height="30" as="geometry" />
        </mxCell>
        <mxCell id="Y6hz9hV52p69HIEqWhYi-138" value="FK" style="shape=partialRectangle;connectable=0;fillColor=none;top=0;left=0;bottom=0;right=0;editable=1;overflow=hidden;" vertex="1" parent="Y6hz9hV52p69HIEqWhYi-137">
          <mxGeometry width="30" height="30" as="geometry" />
        </mxCell>
        <mxCell id="Y6hz9hV52p69HIEqWhYi-139" value="user_id" style="shape=partialRectangle;connectable=0;fillColor=none;top=0;left=0;bottom=0;right=0;align=left;spacingLeft=6;overflow=hidden;" vertex="1" parent="Y6hz9hV52p69HIEqWhYi-137">
          <mxGeometry x="30" width="150" height="30" as="geometry" />
        </mxCell>
        <mxCell id="Y6hz9hV52p69HIEqWhYi-140" value="" style="shape=partialRectangle;collapsible=0;dropTarget=0;pointerEvents=0;fillColor=none;top=0;left=0;bottom=0;right=0;points=[[0,0.5],[1,0.5]];portConstraint=eastwest;" vertex="1" parent="Y6hz9hV52p69HIEqWhYi-130">
          <mxGeometry y="100" width="180" height="20" as="geometry" />
        </mxCell>
        <mxCell id="Y6hz9hV52p69HIEqWhYi-141" value="FK" style="shape=partialRectangle;connectable=0;fillColor=none;top=0;left=0;bottom=0;right=0;editable=1;overflow=hidden;" vertex="1" parent="Y6hz9hV52p69HIEqWhYi-140">
          <mxGeometry width="30" height="20" as="geometry" />
        </mxCell>
        <mxCell id="Y6hz9hV52p69HIEqWhYi-142" value="prod_id" style="shape=partialRectangle;connectable=0;fillColor=none;top=0;left=0;bottom=0;right=0;align=left;spacingLeft=6;overflow=hidden;" vertex="1" parent="Y6hz9hV52p69HIEqWhYi-140">
          <mxGeometry x="30" width="150" height="20" as="geometry" />
        </mxCell>
        <mxCell id="Y6hz9hV52p69HIEqWhYi-256" value="" style="shape=partialRectangle;collapsible=0;dropTarget=0;pointerEvents=0;fillColor=none;top=0;left=0;bottom=0;right=0;points=[[0,0.5],[1,0.5]];portConstraint=eastwest;" vertex="1" parent="Y6hz9hV52p69HIEqWhYi-130">
          <mxGeometry y="120" width="180" height="30" as="geometry" />
        </mxCell>
        <mxCell id="Y6hz9hV52p69HIEqWhYi-257" value="FK" style="shape=partialRectangle;connectable=0;fillColor=none;top=0;left=0;bottom=0;right=0;editable=1;overflow=hidden;" vertex="1" parent="Y6hz9hV52p69HIEqWhYi-256">
          <mxGeometry width="30" height="30" as="geometry" />
        </mxCell>
        <mxCell id="Y6hz9hV52p69HIEqWhYi-258" value="cat_id" style="shape=partialRectangle;connectable=0;fillColor=none;top=0;left=0;bottom=0;right=0;align=left;spacingLeft=6;overflow=hidden;" vertex="1" parent="Y6hz9hV52p69HIEqWhYi-256">
          <mxGeometry x="30" width="150" height="30" as="geometry" />
        </mxCell>
        <mxCell id="Y6hz9hV52p69HIEqWhYi-228" value="" style="shape=partialRectangle;collapsible=0;dropTarget=0;pointerEvents=0;fillColor=none;top=0;left=0;bottom=0;right=0;points=[[0,0.5],[1,0.5]];portConstraint=eastwest;" vertex="1" parent="Y6hz9hV52p69HIEqWhYi-130">
          <mxGeometry y="150" width="180" height="30" as="geometry" />
        </mxCell>
        <mxCell id="Y6hz9hV52p69HIEqWhYi-229" value="" style="shape=partialRectangle;connectable=0;fillColor=none;top=0;left=0;bottom=0;right=0;editable=1;overflow=hidden;" vertex="1" parent="Y6hz9hV52p69HIEqWhYi-228">
          <mxGeometry width="30" height="30" as="geometry" />
        </mxCell>
        <mxCell id="Y6hz9hV52p69HIEqWhYi-230" value="viewed" style="shape=partialRectangle;connectable=0;fillColor=none;top=0;left=0;bottom=0;right=0;align=left;spacingLeft=6;overflow=hidden;" vertex="1" parent="Y6hz9hV52p69HIEqWhYi-228">
          <mxGeometry x="30" width="150" height="30" as="geometry" />
        </mxCell>
        <mxCell id="Y6hz9hV52p69HIEqWhYi-232" value="" style="shape=partialRectangle;collapsible=0;dropTarget=0;pointerEvents=0;fillColor=none;top=0;left=0;bottom=0;right=0;points=[[0,0.5],[1,0.5]];portConstraint=eastwest;" vertex="1" parent="Y6hz9hV52p69HIEqWhYi-130">
          <mxGeometry y="180" width="180" height="30" as="geometry" />
        </mxCell>
        <mxCell id="Y6hz9hV52p69HIEqWhYi-233" value="" style="shape=partialRectangle;connectable=0;fillColor=none;top=0;left=0;bottom=0;right=0;editable=1;overflow=hidden;" vertex="1" parent="Y6hz9hV52p69HIEqWhYi-232">
          <mxGeometry width="30" height="30" as="geometry" />
        </mxCell>
        <mxCell id="Y6hz9hV52p69HIEqWhYi-234" value="purchased" style="shape=partialRectangle;connectable=0;fillColor=none;top=0;left=0;bottom=0;right=0;align=left;spacingLeft=6;overflow=hidden;" vertex="1" parent="Y6hz9hV52p69HIEqWhYi-232">
          <mxGeometry x="30" width="150" height="30" as="geometry" />
        </mxCell>
        <mxCell id="Y6hz9hV52p69HIEqWhYi-252" value="" style="shape=partialRectangle;collapsible=0;dropTarget=0;pointerEvents=0;fillColor=none;top=0;left=0;bottom=0;right=0;points=[[0,0.5],[1,0.5]];portConstraint=eastwest;" vertex="1" parent="Y6hz9hV52p69HIEqWhYi-130">
          <mxGeometry y="210" width="180" height="30" as="geometry" />
        </mxCell>
        <mxCell id="Y6hz9hV52p69HIEqWhYi-253" value="" style="shape=partialRectangle;connectable=0;fillColor=none;top=0;left=0;bottom=0;right=0;editable=1;overflow=hidden;" vertex="1" parent="Y6hz9hV52p69HIEqWhYi-252">
          <mxGeometry width="30" height="30" as="geometry" />
        </mxCell>
        <mxCell id="Y6hz9hV52p69HIEqWhYi-254" value="searched" style="shape=partialRectangle;connectable=0;fillColor=none;top=0;left=0;bottom=0;right=0;align=left;spacingLeft=6;overflow=hidden;" vertex="1" parent="Y6hz9hV52p69HIEqWhYi-252">
          <mxGeometry x="30" width="150" height="30" as="geometry" />
        </mxCell>
        <mxCell id="Y6hz9hV52p69HIEqWhYi-248" value="" style="shape=partialRectangle;collapsible=0;dropTarget=0;pointerEvents=0;fillColor=none;top=0;left=0;bottom=0;right=0;points=[[0,0.5],[1,0.5]];portConstraint=eastwest;" vertex="1" parent="Y6hz9hV52p69HIEqWhYi-130">
          <mxGeometry y="240" width="180" height="30" as="geometry" />
        </mxCell>
        <mxCell id="Y6hz9hV52p69HIEqWhYi-249" value="" style="shape=partialRectangle;connectable=0;fillColor=none;top=0;left=0;bottom=0;right=0;editable=1;overflow=hidden;" vertex="1" parent="Y6hz9hV52p69HIEqWhYi-248">
          <mxGeometry width="30" height="30" as="geometry" />
        </mxCell>
        <mxCell id="Y6hz9hV52p69HIEqWhYi-250" value="browsing_data" style="shape=partialRectangle;connectable=0;fillColor=none;top=0;left=0;bottom=0;right=0;align=left;spacingLeft=6;overflow=hidden;" vertex="1" parent="Y6hz9hV52p69HIEqWhYi-248">
          <mxGeometry x="30" width="150" height="30" as="geometry" />
        </mxCell>
        <mxCell id="Y6hz9hV52p69HIEqWhYi-240" value="" style="shape=partialRectangle;collapsible=0;dropTarget=0;pointerEvents=0;fillColor=none;top=0;left=0;bottom=0;right=0;points=[[0,0.5],[1,0.5]];portConstraint=eastwest;" vertex="1" parent="Y6hz9hV52p69HIEqWhYi-130">
          <mxGeometry y="270" width="180" height="30" as="geometry" />
        </mxCell>
        <mxCell id="Y6hz9hV52p69HIEqWhYi-241" value="" style="shape=partialRectangle;connectable=0;fillColor=none;top=0;left=0;bottom=0;right=0;editable=1;overflow=hidden;" vertex="1" parent="Y6hz9hV52p69HIEqWhYi-240">
          <mxGeometry width="30" height="30" as="geometry" />
        </mxCell>
        <mxCell id="Y6hz9hV52p69HIEqWhYi-242" value="user_agnant" style="shape=partialRectangle;connectable=0;fillColor=none;top=0;left=0;bottom=0;right=0;align=left;spacingLeft=6;overflow=hidden;" vertex="1" parent="Y6hz9hV52p69HIEqWhYi-240">
          <mxGeometry x="30" width="150" height="30" as="geometry" />
        </mxCell>
        <mxCell id="Y6hz9hV52p69HIEqWhYi-286" value="" style="edgeStyle=entityRelationEdgeStyle;fontSize=12;html=1;endArrow=ERoneToMany;startArrow=ERmandOne;entryX=1;entryY=0.5;entryDx=0;entryDy=0;" edge="1" parent="1" source="Y6hz9hV52p69HIEqWhYi-92" target="Y6hz9hV52p69HIEqWhYi-32">
          <mxGeometry width="100" height="100" relative="1" as="geometry">
            <mxPoint x="570" y="150" as="sourcePoint" />
            <mxPoint x="640" y="20" as="targetPoint" />
          </mxGeometry>
        </mxCell>
        <mxCell id="Y6hz9hV52p69HIEqWhYi-287" value="" style="edgeStyle=entityRelationEdgeStyle;fontSize=12;html=1;endArrow=ERoneToMany;startArrow=ERzeroToMany;entryX=1;entryY=0.5;entryDx=0;entryDy=0;exitX=-0.026;exitY=-0.124;exitDx=0;exitDy=0;exitPerimeter=0;" edge="1" parent="1" source="Y6hz9hV52p69HIEqWhYi-101" target="Y6hz9hV52p69HIEqWhYi-79">
          <mxGeometry width="100" height="100" relative="1" as="geometry">
            <mxPoint x="570" y="190" as="sourcePoint" />
            <mxPoint x="570" y="150" as="targetPoint" />
          </mxGeometry>
        </mxCell>
        <mxCell id="Y6hz9hV52p69HIEqWhYi-288" value="" style="edgeStyle=entityRelationEdgeStyle;fontSize=12;html=1;endArrow=ERzeroToMany;startArrow=ERmandOne;entryX=1;entryY=0.5;entryDx=0;entryDy=0;" edge="1" parent="1" source="Y6hz9hV52p69HIEqWhYi-101" target="Y6hz9hV52p69HIEqWhYi-105">
          <mxGeometry width="100" height="100" relative="1" as="geometry">
            <mxPoint x="560" y="360" as="sourcePoint" />
            <mxPoint x="580" y="650" as="targetPoint" />
          </mxGeometry>
        </mxCell>
        <mxCell id="Y6hz9hV52p69HIEqWhYi-289" value="" style="edgeStyle=entityRelationEdgeStyle;fontSize=12;html=1;endArrow=ERoneToMany;startArrow=ERzeroToMany;exitX=-0.005;exitY=0.054;exitDx=0;exitDy=0;exitPerimeter=0;" edge="1" parent="1" source="Y6hz9hV52p69HIEqWhYi-95" target="Y6hz9hV52p69HIEqWhYi-131">
          <mxGeometry width="100" height="100" relative="1" as="geometry">
            <mxPoint x="780" y="220" as="sourcePoint" />
            <mxPoint x="590" y="985" as="targetPoint" />
          </mxGeometry>
        </mxCell>
        <mxCell id="Y6hz9hV52p69HIEqWhYi-290" value="" style="edgeStyle=entityRelationEdgeStyle;fontSize=12;html=1;endArrow=ERoneToMany;startArrow=ERzeroToMany;entryX=0;entryY=0.5;entryDx=0;entryDy=0;exitX=1;exitY=0.5;exitDx=0;exitDy=0;" edge="1" parent="1" source="Y6hz9hV52p69HIEqWhYi-66" target="Y6hz9hV52p69HIEqWhYi-45">
          <mxGeometry width="100" height="100" relative="1" as="geometry">
            <mxPoint x="270" y="330" as="sourcePoint" />
            <mxPoint x="360" y="230" as="targetPoint" />
          </mxGeometry>
        </mxCell>
        <mxCell id="Y6hz9hV52p69HIEqWhYi-291" value="" style="edgeStyle=entityRelationEdgeStyle;fontSize=12;html=1;endArrow=ERoneToMany;startArrow=ERzeroToMany;exitX=1;exitY=1;exitDx=0;exitDy=0;entryX=0;entryY=0.5;entryDx=0;entryDy=0;exitPerimeter=0;" edge="1" parent="1" source="Y6hz9hV52p69HIEqWhYi-66" target="Y6hz9hV52p69HIEqWhYi-79">
          <mxGeometry width="100" height="100" relative="1" as="geometry">
            <mxPoint x="510" y="350" as="sourcePoint" />
            <mxPoint x="610" y="250" as="targetPoint" />
          </mxGeometry>
        </mxCell>
        <mxCell id="Y6hz9hV52p69HIEqWhYi-292" value="" style="edgeStyle=entityRelationEdgeStyle;fontSize=12;html=1;endArrow=ERoneToMany;startArrow=ERzeroToMany;entryX=1;entryY=0.5;entryDx=0;entryDy=0;exitX=0;exitY=0.5;exitDx=0;exitDy=0;" edge="1" parent="1" source="Y6hz9hV52p69HIEqWhYi-105" target="Y6hz9hV52p69HIEqWhYi-72">
          <mxGeometry width="100" height="100" relative="1" as="geometry">
            <mxPoint x="510" y="350" as="sourcePoint" />
            <mxPoint x="610" y="250" as="targetPoint" />
          </mxGeometry>
        </mxCell>
        <mxCell id="Y6hz9hV52p69HIEqWhYi-296" value="" style="edgeStyle=entityRelationEdgeStyle;fontSize=12;html=1;endArrow=ERoneToMany;startArrow=ERzeroToMany;entryX=0;entryY=0.5;entryDx=0;entryDy=0;exitX=1.021;exitY=0.975;exitDx=0;exitDy=0;exitPerimeter=0;" edge="1" parent="1" source="Y6hz9hV52p69HIEqWhYi-188" target="Y6hz9hV52p69HIEqWhYi-140">
          <mxGeometry width="100" height="100" relative="1" as="geometry">
            <mxPoint x="50" y="1010" as="sourcePoint" />
            <mxPoint x="180" y="1030" as="targetPoint" />
          </mxGeometry>
        </mxCell>
        <mxCell id="Y6hz9hV52p69HIEqWhYi-307" value="" style="edgeStyle=entityRelationEdgeStyle;fontSize=12;html=1;endArrow=ERoneToMany;startArrow=ERmandOne;entryX=0;entryY=0.5;entryDx=0;entryDy=0;exitX=-0.006;exitY=0.778;exitDx=0;exitDy=0;exitPerimeter=0;" edge="1" parent="1" source="Y6hz9hV52p69HIEqWhYi-260" target="Y6hz9hV52p69HIEqWhYi-15">
          <mxGeometry width="100" height="100" relative="1" as="geometry">
            <mxPoint x="40" y="900" as="sourcePoint" />
            <mxPoint x="50" y="990" as="targetPoint" />
          </mxGeometry>
        </mxCell>
        <mxCell id="Y6hz9hV52p69HIEqWhYi-309" value="" style="edgeStyle=entityRelationEdgeStyle;fontSize=12;html=1;endArrow=ERoneToMany;startArrow=ERmandOne;exitX=1.021;exitY=0.876;exitDx=0;exitDy=0;exitPerimeter=0;" edge="1" parent="1" source="Y6hz9hV52p69HIEqWhYi-53">
          <mxGeometry width="100" height="100" relative="1" as="geometry">
            <mxPoint x="-30" y="560" as="sourcePoint" />
            <mxPoint x="70" y="593" as="targetPoint" />
          </mxGeometry>
        </mxCell>
      </root>
    </mxGraphModel>
  </diagram>
</mxfile>
